<svg xmlns="http://www.w3.org/2000/svg" width="166.632" height="60" viewBox="0 0 166.632 60">
    <path id="Path_37303" data-name="Path 37303" d="M-36.4-16.536H-46.86V0h3.768V-6.5h5.3V-9.768h-5.3v-3.48h6.7ZM-22.98.288A8.528,8.528,0,0,0-14.556-8.28a8.507,8.507,0,0,0-8.424-8.544A8.481,8.481,0,0,0-31.428-8.28,8.5,8.5,0,0,0-22.98.288ZM-23-3.264A4.7,4.7,0,0,1-27.636-8.28,4.68,4.68,0,0,1-23-13.272,4.713,4.713,0,0,1-18.348-8.28,4.733,4.733,0,0,1-23-3.264ZM4.6,0,.348-6.024a5.3,5.3,0,0,0,3.864-5.04,5.228,5.228,0,0,0-5.568-5.472H-8.124V0h3.768V-5.808h.768L.2,0ZM-1.86-13.248a2.2,2.2,0,0,1,2.28,2.28A2.144,2.144,0,0,1-1.956-8.784h-2.4v-4.464Zm29.88-3.288H24.8L20.052-6.192,15.228-16.536H12.084L10.044,0h3.864l1.1-9.384,3.6,7.488h2.88l3.6-7.512L26.172,0h3.864ZM41.676.288c3.024,0,6.1-1.584,6.1-5.136,0-3-2.4-4.2-4.752-4.92l-1.728-.552c-1.536-.432-1.632-1.176-1.632-1.512a1.791,1.791,0,0,1,1.944-1.7,1.732,1.732,0,0,1,1.9,1.824h3.768c0-3.216-2.424-5.112-5.592-5.112-3.288,0-5.832,2.088-5.832,5.064,0,1.56.7,3.792,4.344,4.776l1.968.6C43.62-5.9,43.98-5.3,43.98-4.656c0,1.08-.936,1.7-2.16,1.7a2.14,2.14,0,0,1-2.352-1.872H35.7C35.7-1.776,38.148.288,41.676.288Z" transform="translate(118.86 37.825)" fill="#2c2c2e"/>
    <g id="icon-yayforms">
        <rect id="Rectangle_11" data-name="Rectangle 11" width="60" height="60" fill="none"/>
        <path id="Exclusion_1" data-name="Exclusion 1" d="M12.167,58.711h0a2.412,2.412,0,0,1-1.244-.344,3.366,3.366,0,0,1-1.688-2.939,21.517,21.517,0,0,1,.519-4.742,47.212,47.212,0,0,0,.827-6.724,26.569,26.569,0,0,0-1.011-8.41A46.843,46.843,0,0,0,3.234,22.681a28.776,28.776,0,0,1-2.85-5.051,4.218,4.218,0,0,1,.257-4.036A3.722,3.722,0,0,1,4.078,12a27.471,27.471,0,0,1,5.284.827c.4.085.8.172,1.213.26a42.173,42.173,0,0,0,8.857,1.087,27.743,27.743,0,0,0,5.734-.582c5.8-1.21,10.459-4.852,14.572-8.064C43.538,2.562,46.818,0,50.1,0a6.1,6.1,0,0,1,2.507.536,3.09,3.09,0,0,1,1.808,1.778c.749,2.079-.864,5.3-2.571,8.7a41.053,41.053,0,0,0-2.962,6.907c-.727,2.583-.613,4.637.348,6.279a44.7,44.7,0,0,0-2.461,3.837,1.131,1.131,0,0,0,.987,1.677,1.133,1.133,0,0,0,.989-.582c.006-.011.766-1.375,2.009-3.167a29.678,29.678,0,0,1,7.084,10.738c1.562,3.986,2.048,7.625,1.3,9.736a2.62,2.62,0,0,1-2.418,1.951c-.157.009-.316.014-.471.014a12.9,12.9,0,0,1-5.522-1.64c-.317-.147-.677-.314-1.043-.478a21.73,21.73,0,0,0-9.512-2.118,29.867,29.867,0,0,0-3.085.168,32.452,32.452,0,0,1,1.336-6.5,45.956,45.956,0,0,1,4.79-9.775c1.63-2.586,3.029-4.382,3.088-4.457a1.13,1.13,0,0,0-1.7-1.489,23.258,23.258,0,0,0-2.327,3.211,30.641,30.641,0,0,1-2.905,3.994,3.79,3.79,0,0,1-2.453,1.5c-.042,0-.083,0-.124-.005a.971.971,0,0,1-.771-.423,4.468,4.468,0,0,1-.515-2.731c.051-.219.1-.447.135-.678a14.183,14.183,0,0,0,.2-1.962,1.125,1.125,0,0,0-.85-1.327,1.138,1.138,0,0,0-.259-.03,1.125,1.125,0,0,0-1.1.872l-.008.036c-.012.045-.022.09-.029.132a17.641,17.641,0,0,0-.325,2.429l-.011.205a4.458,4.458,0,0,1-.85,1.856,6.436,6.436,0,0,1-1.64,1.336,2.314,2.314,0,0,1-.923.329,2.764,2.764,0,0,1,.117-1.547,8.423,8.423,0,0,1,.677-1.651c.593-.9,1.011-1.626,1.054-1.705a1.129,1.129,0,1,0-1.969-1.106l0,.006c-.062.109-.166.289-.311.527a1.208,1.208,0,0,0-.125.153c-.211.312-.41.638-.59.971-.14.211-.29.43-.446.65a10.526,10.526,0,0,1-2.788,2.965,3.854,3.854,0,0,1-1.713.6.461.461,0,0,1-.188-.029.441.441,0,0,1-.108-.25,2.618,2.618,0,0,1,.529-1.584A7.342,7.342,0,0,1,25.952,26.8a2.392,2.392,0,0,1,1.4-.45,2.634,2.634,0,0,1,.31.019,2.82,2.82,0,0,1,.87.25l-.007,0,1.106-1.969a4.842,4.842,0,0,0-1.575-.5,4.951,4.951,0,0,0-.707-.051,4.663,4.663,0,0,0-2.692.86,9.543,9.543,0,0,0-2.591,2.731,4.45,4.45,0,0,0-.82,3.222,2.5,2.5,0,0,0,1.374,1.849,2.687,2.687,0,0,0,1.137.237,3.919,3.919,0,0,0,.751-.078,7.361,7.361,0,0,0,2.05-.806,6.238,6.238,0,0,0,1.08-.778,2.969,2.969,0,0,0,.254.677,2.057,2.057,0,0,0,1.625,1.1,2.472,2.472,0,0,0,.308.018,6.37,6.37,0,0,0,3.976-2.1,4,4,0,0,0,.4.691,3.235,3.235,0,0,0,2.4,1.35c.111.01.222.014.339.014a3.9,3.9,0,0,0,1.009-.135,36.534,36.534,0,0,0-1.67,4.193,33.623,33.623,0,0,0-1.268,5.615c-.087.617-.161,1.254-.22,1.892H34.8l.05-.008c.766-.127,1.521-.23,2.246-.306-.116,1.089-.188,2.207-.213,3.322a34.082,34.082,0,0,0,.167,4.545,1.132,1.132,0,0,1-.98,1.262,1.272,1.272,0,0,1-.142.008,1.13,1.13,0,0,1-1.119-.987,36.5,36.5,0,0,1-.185-4.832c.022-1.007.079-2.017.17-3a23.4,23.4,0,0,0-9.374,3.928A54.665,54.665,0,0,0,18.6,54.324C16.015,56.775,13.971,58.71,12.167,58.711Zm5.582-29.175v0l0,.008,0,.006-.008.023a45.548,45.548,0,0,1-3.9,8.158,1.13,1.13,0,0,0,1.908,1.21,47.311,47.311,0,0,0,4.116-8.613,68.537,68.537,0,0,0,2.552-10.177.061.061,0,0,0,.007-.012,1.13,1.13,0,0,0-.953-1.733,1.266,1.266,0,0,0-1.215.975s0,.008,0,.019a18.792,18.792,0,0,0-1.021,2.912l0,.006a18.112,18.112,0,0,1-1.561,4.092c-.827,1.353-1.668,1.509-2.228,1.509l-.125,0A2.542,2.542,0,0,1,13.478,27a6.7,6.7,0,0,1-1.254-2.278,15.257,15.257,0,0,1-.75-3.591,1.131,1.131,0,0,0-1.126-1.058l-.073,0a1.129,1.129,0,0,0-1.056,1.2,17.453,17.453,0,0,0,.858,4.154,8.96,8.96,0,0,0,1.71,3.071,5.217,5.217,0,0,0,1.475,1.16,4.636,4.636,0,0,0,1.958.515c.062,0,.129,0,.205,0a4.369,4.369,0,0,0,2.32-.642Zm27.91,1.973a1.125,1.125,0,0,0-1.049.71l-.474,1.187a1.129,1.129,0,1,0,2.1.839l.475-1.187a1.13,1.13,0,0,0-1.049-1.549Zm5.1-5.541h0c-.069-.064-.141-.13-.235-.214a6.43,6.43,0,0,1-1.288-1.55c.846-1.188,1.713-2.292,2.579-3.282A56.381,56.381,0,0,1,57.866,15,1.129,1.129,0,0,1,59.3,16.752a55.029,55.029,0,0,0-5,5.657,40.366,40.366,0,0,0-2.755,3.558Z" fill="#2c2c2e"/>
    </g>
</svg>
